<?xml version="1.0" standalone="no"?><!DOCTYPE svg PUBLIC "-//W3C//DTD SVG 1.1//EN" "http://www.w3.org/Graphics/SVG/1.1/DTD/svg11.dtd"><svg t="1614247330368" class="icon" viewBox="0 0 1024 1024" version="1.1" xmlns="http://www.w3.org/2000/svg" p-id="3304" width="16" height="16" xmlns:xlink="http://www.w3.org/1999/xlink"><defs><style type="text/css"></style></defs><path d="M512 60c61 0 120.2 11.9 175.9 35.5 53.8 22.8 102.2 55.4 143.7 96.9s74.1 89.9 96.9 143.7C952.1 391.8 964 451 964 512s-11.9 120.2-35.5 175.9c-22.8 53.8-55.4 102.2-96.9 143.7s-89.9 74.1-143.7 96.9C632.2 952.1 573 964 512 964s-120.2-11.9-175.9-35.5c-53.8-22.8-102.2-55.4-143.7-96.9s-74.1-89.9-96.9-143.7C71.9 632.2 60 573 60 512s11.9-120.2 35.5-175.9c22.8-53.8 55.4-102.2 96.9-143.7s89.9-74.1 143.7-96.9C391.8 71.9 451 60 512 60m0-60C229.2 0 0 229.2 0 512s229.2 512 512 512 512-229.2 512-512S794.8 0 512 0z" fill="#448BFB" p-id="3305"></path><path d="M709.7 382c-11.7-11.7-30.7-11.7-42.4 0L470.8 578.4l-114-114c-11.7-11.7-30.7-11.7-42.4 0s-11.7 30.7 0 42.4l134.4 134.4c0.2 0.2 0.3 0.3 0.5 0.4 0.1 0.2 0.3 0.3 0.4 0.5 11.7 11.7 30.7 11.7 42.4 0l217.7-217.7c11.6-11.7 11.6-30.7-0.1-42.4z" fill="#448BFB" p-id="3306"></path></svg>